<svg width="56" height="56" viewBox="0 0 56 56" fill="none" xmlns="http://www.w3.org/2000/svg">
<g id="Bandaids">
<path id="Vector" d="M39.1359 28.0003L45.8187 21.3197C47.2958 19.8426 48.1256 17.8392 48.1256 15.7503C48.1256 13.6614 47.2958 11.658 45.8187 10.1809C44.3416 8.70384 42.3383 7.87402 40.2493 7.87402C38.1604 7.87402 36.157 8.70384 34.68 10.1809L27.9993 16.8637L21.3187 10.1809C19.8416 8.70384 17.8383 7.87402 15.7493 7.87402C13.6604 7.87402 11.657 8.70384 10.18 10.1809C8.70287 11.658 7.87305 13.6614 7.87305 15.7503C7.87305 17.8392 8.70287 19.8426 10.18 21.3197L16.8628 28.0003L10.18 34.6809C8.70287 36.158 7.87305 38.1614 7.87305 40.2503C7.87305 42.3392 8.70287 44.3426 10.18 45.8197C11.657 47.2968 13.6604 48.1266 15.7493 48.1266C17.8383 48.1266 19.8416 47.2968 21.3187 45.8197L27.9993 39.1369L34.68 45.8197C36.157 47.2968 38.1604 48.1266 40.2493 48.1266C42.3383 48.1266 44.3416 47.2968 45.8187 45.8197C47.2958 44.3426 48.1256 42.3392 48.1256 40.2503C48.1256 38.1614 47.2958 36.158 45.8187 34.6809L39.1359 28.0003ZM35.9181 11.4191C37.0668 10.2703 38.6248 9.625 40.2493 9.625C41.8739 9.625 43.4319 10.2703 44.5806 11.4191C45.7293 12.5678 46.3746 14.1258 46.3746 15.7503C46.3746 17.3748 45.7293 18.9328 44.5806 20.0816L37.8978 26.7622L29.2375 18.1019L35.9181 11.4191ZM36.6618 28.0003L27.9993 36.6628L19.3368 28.0003L27.9993 19.3378L36.6618 28.0003ZM11.4181 20.0816C10.2694 18.9328 9.62402 17.3748 9.62402 15.7503C9.62402 14.1258 10.2694 12.5678 11.4181 11.4191C12.5668 10.2703 14.1248 9.625 15.7493 9.625C17.3739 9.625 18.9319 10.2703 20.0806 11.4191L26.7612 18.1019L18.1009 26.7622L11.4181 20.0816ZM20.0806 44.5816C18.9319 45.7303 17.3739 46.3756 15.7493 46.3756C14.1248 46.3756 12.5668 45.7303 11.4181 44.5816C10.2694 43.4328 9.62402 41.8748 9.62402 40.2503C9.62402 38.6258 10.2694 37.0678 11.4181 35.9191L18.1009 29.2384L26.7612 37.8987L20.0806 44.5816ZM44.5806 44.5816C44.0118 45.1504 43.3366 45.6016 42.5934 45.9095C41.8503 46.2173 41.0537 46.3757 40.2493 46.3757C39.4449 46.3757 38.6484 46.2173 37.9053 45.9095C37.1621 45.6016 36.4868 45.1504 35.9181 44.5816L29.2375 37.8987L37.8978 29.2384L44.5806 35.9191C45.1494 36.4878 45.6006 37.1631 45.9085 37.9062C46.2163 38.6494 46.3748 39.4459 46.3748 40.2503C46.3748 41.0547 46.2163 41.8512 45.9085 42.5944C45.6006 43.3375 45.1494 44.0128 44.5806 44.5816ZM26.2493 28.0003C26.2493 27.6542 26.352 27.3158 26.5443 27.0281C26.7366 26.7403 27.0099 26.516 27.3296 26.3835C27.6494 26.2511 28.0013 26.2164 28.3407 26.2839C28.6802 26.3515 28.992 26.5181 29.2368 26.7629C29.4815 27.0076 29.6482 27.3194 29.7157 27.6589C29.7832 27.9984 29.7486 28.3502 29.6161 28.67C29.4837 28.9898 29.2594 29.2631 28.9716 29.4554C28.6838 29.6477 28.3454 29.7503 27.9993 29.7503C27.5352 29.7503 27.0901 29.5659 26.7619 29.2377C26.4337 28.9096 26.2493 28.4644 26.2493 28.0003Z" fill="url(#paint0_linear_1041_1768)"/>
</g>
<defs>
<linearGradient id="paint0_linear_1041_1768" x1="27.9993" y1="48.1266" x2="27.9993" y2="7.87402" gradientUnits="userSpaceOnUse">
<stop stop-color="#03FFCF"/>
<stop offset="0.9999" stop-color="#1800FF"/>
<stop offset="1" stop-color="#0A0137"/>
</linearGradient>
</defs>
</svg>
