<svg width="33" height="32" viewBox="0 0 33 32" fill="none" xmlns="http://www.w3.org/2000/svg">
<path d="M4.89351 9.91984L16.6668 16.7332L28.3601 9.9598M16.6668 28.8132V16.7198M23.3335 17.6532V12.7732L10.6802 5.46647M13.9068 3.3065L6.78682 7.26655C5.17349 8.15988 3.85352 10.3999 3.85352 12.2399V19.7732C3.85352 21.6132 5.17349 23.8532 6.78682 24.7465L13.9068 28.7066C15.4268 29.5466 17.9201 29.5466 19.4401 28.7066L26.5602 24.7465C28.1735 23.8532 29.4935 21.6132 29.4935 19.7732V12.2399C29.4935 10.3999 28.1735 8.15988 26.5602 7.26655L19.4401 3.3065C17.9068 2.45317 15.4268 2.45317 13.9068 3.3065Z" stroke="#1B1AFF" stroke-width="1.5" stroke-linecap="round" stroke-linejoin="round"/>
</svg>
