<svg width="32" height="32" viewBox="0 0 32 32" fill="none" xmlns="http://www.w3.org/2000/svg">
<path d="M10.666 3.99984H11.9993C9.39935 11.7865 9.39935 20.2132 11.9993 27.9998H10.666M19.9993 3.99984C22.5993 11.7865 22.5993 20.2132 19.9993 27.9998M3.99935 21.3332V19.9998C11.786 22.5998 20.2127 22.5998 27.9993 19.9998V21.3332M3.99935 11.9998C11.786 9.39984 20.2127 9.39984 27.9993 11.9998M29.3327 15.9998C29.3327 23.3636 23.3631 29.3332 15.9993 29.3332C8.63555 29.3332 2.66602 23.3636 2.66602 15.9998C2.66602 8.63604 8.63555 2.6665 15.9993 2.6665C23.3631 2.6665 29.3327 8.63604 29.3327 15.9998Z" stroke="#1B1AFF" stroke-width="1.5" stroke-linecap="round" stroke-linejoin="round"/>
</svg>
