<svg width="33" height="32" viewBox="0 0 33 32" fill="none" xmlns="http://www.w3.org/2000/svg">
<path d="M12.334 20.0002L20.334 12.0002M19.66 19.3335H19.672M12.9933 12.6668H13.0053M5.65251 19.5474L3.62586 17.5207C2.79919 16.694 2.79919 15.334 3.62586 14.5074L5.65251 12.4807C5.99918 12.134 6.27918 11.454 6.27918 10.974V8.1073C6.27918 6.93397 7.23919 5.974 8.41252 5.974H11.2792C11.7592 5.974 12.4392 5.69404 12.7859 5.34738L14.8125 3.32068C15.6392 2.49402 16.9992 2.49402 17.8259 3.32068L19.8525 5.34738C20.1992 5.69404 20.8792 5.974 21.3592 5.974H24.2259C25.3992 5.974 26.3592 6.93397 26.3592 8.1073V10.974C26.3592 11.454 26.6392 12.134 26.9858 12.4807L29.0125 14.5074C29.8392 15.334 29.8392 16.694 29.0125 17.5207L26.9858 19.5474C26.6392 19.8941 26.3592 20.5741 26.3592 21.0541V23.9206C26.3592 25.094 25.3992 26.0541 24.2259 26.0541H21.3592C20.8792 26.0541 20.1992 26.334 19.8525 26.6807L17.8259 28.7074C16.9992 29.5341 15.6392 29.5341 14.8125 28.7074L12.7859 26.6807C12.4392 26.334 11.7592 26.0541 11.2792 26.0541H8.41252C7.23919 26.0541 6.27918 25.094 6.27918 23.9206V21.0541C6.27918 20.5607 5.99918 19.8807 5.65251 19.5474Z" stroke="#1B1AFF" stroke-width="1.5" stroke-linecap="round" stroke-linejoin="round"/>
</svg>
