<svg width="56" height="56" viewBox="0 0 56 56" fill="none" xmlns="http://www.w3.org/2000/svg">
<g id="ChartDonut">
<path id="Vector" d="M27.9997 6.125C27.7676 6.125 27.5451 6.21719 27.381 6.38128C27.2169 6.54538 27.1247 6.76794 27.1247 7V19.25C27.1247 19.4821 27.2169 19.7046 27.381 19.8687C27.5451 20.0328 27.7676 20.125 27.9997 20.125C29.7332 20.1251 31.4183 20.6973 32.7935 21.7527C34.1687 22.8081 35.1573 24.2878 35.6058 25.9623C36.0544 27.6368 35.9379 29.4125 35.2744 31.014C34.6109 32.6156 33.4376 33.9534 31.9362 34.8201C30.4349 35.6868 28.6896 36.0339 26.9709 35.8076C25.2522 35.5813 23.6562 34.7942 22.4305 33.5683C21.2047 32.3425 20.4176 30.7465 20.1914 29.0278C19.9651 27.3091 20.3123 25.5638 21.1791 24.0625C21.2367 23.9629 21.2741 23.8528 21.2891 23.7387C21.3041 23.6246 21.2964 23.5087 21.2666 23.3975C21.2367 23.2863 21.1852 23.1822 21.115 23.091C21.0448 22.9998 20.9573 22.9233 20.8575 22.8659L10.2481 16.7409C10.0471 16.6253 9.80836 16.5942 9.5844 16.6545C9.36044 16.7148 9.16959 16.8616 9.05377 17.0625C6.64609 21.2327 5.68171 26.0809 6.31019 30.8551C6.93868 35.6292 9.12491 40.0626 12.5298 43.4677C15.9347 46.8727 20.3681 49.0591 25.1422 49.6878C29.9164 50.3164 34.7646 49.3522 38.9349 46.9447C43.1052 44.5372 46.3646 40.8209 48.2076 36.3721C50.0505 31.9234 50.3741 26.9909 49.128 22.3395C47.882 17.6882 45.136 13.5779 41.3159 10.6463C37.4958 7.71461 32.8151 6.12536 27.9997 6.125ZM10.1453 18.7031L19.2606 23.9531C18.4417 25.7242 18.1822 27.7029 18.5169 29.6253L8.35158 32.3597C7.32821 27.7381 7.96319 22.9037 10.1453 18.7031ZM8.8044 34.0484L18.9675 31.325C19.599 33.031 20.6998 34.5238 22.1431 35.6312C23.5864 36.7385 25.3134 37.4153 27.1247 37.5834V48.1053C22.9989 47.9206 19.0294 46.4734 15.7529 43.9594C12.4763 41.4453 10.0508 37.9858 8.8044 34.0484ZM28.8747 48.1053V37.5834C31.2647 37.3636 33.4863 36.2587 35.1038 34.4856C36.7213 32.7125 37.618 30.399 37.618 27.9989C37.618 25.5988 36.7213 23.2854 35.1038 21.5122C33.4863 19.7391 31.2647 18.6342 28.8747 18.4144V7.89469C34.053 8.12391 38.9433 10.3423 42.5265 14.0877C46.1098 17.8331 48.1097 22.8166 48.1097 28C48.1097 33.1834 46.1098 38.1669 42.5265 41.9123C38.9433 45.6577 34.053 47.8761 28.8747 48.1053Z" fill="url(#paint0_linear_1041_1760)"/>
</g>
<defs>
<linearGradient id="paint0_linear_1041_1760" x1="27.9981" y1="49.875" x2="27.9981" y2="6.125" gradientUnits="userSpaceOnUse">
<stop stop-color="#03FFCF"/>
<stop offset="0.9999" stop-color="#1800FF"/>
<stop offset="1" stop-color="#0A0137"/>
</linearGradient>
</defs>
</svg>
