<svg width="56" height="56" viewBox="0 0 56 56" fill="none" xmlns="http://www.w3.org/2000/svg">
<g id="CodepenLogo">
<path id="Vector" d="M51.1875 20.2453C51.1875 20.2453 51.1766 20.2453 51.1678 20.23L28.4178 7.98001C28.2901 7.91109 28.1473 7.875 28.0022 7.875C27.8571 7.875 27.7143 7.91109 27.5866 7.98001L4.83656 20.23L4.8125 20.2475C4.68025 20.3239 4.57029 20.4335 4.49354 20.5655C4.41679 20.6975 4.37592 20.8473 4.375 21V35C4.37554 35.1531 4.41623 35.3033 4.493 35.4358C4.56977 35.5682 4.67994 35.6782 4.8125 35.7547C4.81864 35.7603 4.82523 35.7654 4.83219 35.77L27.5822 48.02C27.7099 48.0889 27.8527 48.125 27.9978 48.125C28.1429 48.125 28.2857 48.0889 28.4134 48.02L51.1634 35.77C51.1702 35.7661 51.1762 35.7609 51.1809 35.7547C51.3135 35.6782 51.4237 35.5682 51.5004 35.4358C51.5772 35.3033 51.6179 35.1531 51.6184 35V21C51.6186 20.8476 51.5789 20.6978 51.5033 20.5654C51.4277 20.433 51.3188 20.3227 51.1875 20.2453ZM49.875 33.5344L39.5938 28L49.875 22.4656V33.5344ZM37.7497 27.0069L28.875 22.2272V10.2156L48.9037 21L37.7497 27.0069ZM28 32.2569L20.0966 28L28 23.7431L35.9034 28L28 32.2569ZM27.125 10.2156V22.2272L18.2503 27.0069L7.09625 21L27.125 10.2156ZM6.125 22.4656L16.4062 28L6.125 33.5344V22.4656ZM18.2503 28.9931L27.125 33.7728V45.7844L7.09625 35L18.2503 28.9931ZM28.875 45.7844V33.7728L37.7497 28.9931L48.9059 35L28.875 45.7844Z" fill="url(#paint0_linear_1041_1776)"/>
</g>
<defs>
<linearGradient id="paint0_linear_1041_1776" x1="27.9967" y1="48.125" x2="27.9967" y2="7.875" gradientUnits="userSpaceOnUse">
<stop stop-color="#03FFCF"/>
<stop offset="0.9999" stop-color="#1800FF"/>
<stop offset="1" stop-color="#0A0137"/>
</linearGradient>
</defs>
</svg>
