<svg width="56" height="56" viewBox="0 0 56 56" fill="none" xmlns="http://www.w3.org/2000/svg">
<g id="FediverseLogo">
<path id="Vector" d="M46.3752 21.8748C45.4835 21.8715 44.6059 22.0975 43.8267 22.531L36.2908 13.1248C36.8913 12.4524 37.3085 11.6367 37.5022 10.7562C37.696 9.87582 37.6597 8.96033 37.397 8.09797C37.1343 7.2356 36.6539 6.45541 36.0022 5.83255C35.3505 5.20969 34.5494 4.76514 33.676 4.54172C32.8026 4.31829 31.8865 4.32353 31.0157 4.55692C30.1449 4.79032 29.3489 5.244 28.7044 5.87427C28.0598 6.50455 27.5884 7.29017 27.3356 8.15549C27.0828 9.0208 27.057 9.93664 27.2608 10.8148L15.8136 15.577C15.3422 14.8273 14.6889 14.209 13.9144 13.7797C13.1398 13.3504 12.2693 13.1239 11.3837 13.1215C10.4981 13.119 9.62632 13.3406 8.84942 13.7657C8.07251 14.1907 7.41574 14.8053 6.94022 15.5524C6.4647 16.2995 6.18588 17.1547 6.12971 18.0385C6.07354 18.9223 6.24185 19.8059 6.61896 20.6072C6.99608 21.4084 7.56975 22.1013 8.2866 22.6212C9.00345 23.1412 9.84018 23.4714 10.7189 23.581L11.1805 35.1114C10.3045 35.2931 9.4894 35.6957 8.81267 36.2809C8.13595 36.8662 7.62002 37.6147 7.31385 38.4553C7.00768 39.296 6.92143 40.201 7.06329 41.0843C7.20515 41.9677 7.57041 42.8002 8.1244 43.5027C8.67839 44.2052 9.40273 44.7546 10.2287 45.0985C11.0546 45.4424 11.9547 45.5696 12.8436 45.4679C13.7325 45.3662 14.5807 45.039 15.3076 44.5174C16.0345 43.9958 16.6161 43.2971 16.9971 42.4876L28.9036 45.8214C28.8861 46.0029 28.8752 46.1889 28.8752 46.3748C28.8746 47.2498 29.0927 48.1111 29.5098 48.8803C29.9268 49.6496 30.5295 50.3024 31.263 50.7794C31.9965 51.2564 32.8377 51.5426 33.7099 51.6118C34.5822 51.681 35.4579 51.5311 36.2575 51.1757C37.0571 50.8203 37.7552 50.2707 38.2883 49.5768C38.8214 48.883 39.1726 48.0669 39.31 47.2027C39.4474 46.3386 39.3667 45.4538 39.0751 44.6288C38.7835 43.8038 38.2904 43.0648 37.6405 42.4789L44.3342 31.9614C44.9797 32.2353 45.674 32.376 46.3752 32.3748C47.7676 32.3748 49.1029 31.8217 50.0875 30.8371C51.0721 29.8525 51.6252 28.5172 51.6252 27.1248C51.6252 25.7324 51.0721 24.3971 50.0875 23.4125C49.1029 22.4279 47.7676 21.8748 46.3752 21.8748ZM41.1646 26.497L29.1202 27.0701L32.0274 14.8617C32.1426 14.8704 32.2585 14.8748 32.3752 14.8748C33.2669 14.8781 34.1444 14.6521 34.9236 14.2185L42.4596 23.6248C41.7429 24.4263 41.2907 25.4292 41.1646 26.497ZM15.7896 36.3823C14.9919 35.6484 13.986 35.1806 12.9108 35.0435L12.4492 23.5132C13.6085 23.2669 14.6506 22.6364 15.4067 21.7239L26.4317 28.107L15.7896 36.3823ZM32.3752 6.1248C33.0674 6.1248 33.7441 6.33007 34.3197 6.71465C34.8952 7.09924 35.3439 7.64586 35.6088 8.28541C35.8737 8.92495 35.943 9.62868 35.8079 10.3076C35.6729 10.9865 35.3395 11.6102 34.8501 12.0997C34.3606 12.5892 33.7369 12.9225 33.058 13.0575C32.3791 13.1926 31.6753 13.1233 31.0358 12.8584C30.3962 12.5935 29.8496 12.1449 29.465 11.5693C29.0805 10.9937 28.8752 10.317 28.8752 9.6248C28.8752 8.69654 29.2439 7.8063 29.9003 7.14992C30.5567 6.49355 31.4469 6.1248 32.3752 6.1248ZM27.9367 12.4226C28.507 13.3284 29.3405 14.0382 30.3255 14.457L27.4205 26.6545L16.2927 20.2101C16.513 19.6233 16.6256 19.0016 16.6252 18.3748C16.6248 17.9765 16.5793 17.5795 16.4896 17.1914L27.9367 12.4226ZM7.87518 18.3748C7.87518 17.6826 8.08045 17.0059 8.46504 16.4303C8.84962 15.8547 9.39625 15.4061 10.0358 15.1412C10.6753 14.8763 11.3791 14.807 12.058 14.942C12.7369 15.0771 13.3606 15.4104 13.8501 15.8999C14.3395 16.3894 14.6729 17.013 14.8079 17.692C14.943 18.3709 14.8737 19.0746 14.6088 19.7142C14.3439 20.3537 13.8952 20.9004 13.3197 21.2849C12.7441 21.6695 12.0674 21.8748 11.3752 21.8748C10.4469 21.8748 9.55668 21.506 8.90031 20.8497C8.24393 20.1933 7.87518 19.3031 7.87518 18.3748ZM12.2502 43.7498C11.5579 43.7498 10.8813 43.5445 10.3057 43.1599C9.73011 42.7754 9.28151 42.2287 9.0166 41.5892C8.75169 40.9496 8.68238 40.2459 8.81743 39.567C8.95248 38.8881 9.28582 38.2644 9.77531 37.7749C10.2648 37.2854 10.8884 36.9521 11.5674 36.8171C12.2463 36.682 12.95 36.7513 13.5896 37.0162C14.2291 37.2811 14.7757 37.7297 15.1603 38.3053C15.5449 38.8809 15.7502 39.5576 15.7502 40.2498C15.7502 41.1781 15.3814 42.0683 14.7251 42.7247C14.0687 43.3811 13.1784 43.7498 12.2502 43.7498ZM17.4717 40.8032C17.4892 40.6217 17.5002 40.4357 17.5002 40.2498C17.5011 39.3814 17.2853 38.5265 16.8724 37.7626L27.5605 29.4501L31.6577 41.7417C30.6596 42.2787 29.8606 43.1223 29.3783 44.1479L17.4717 40.8032ZM34.1252 49.8748C33.4329 49.8748 32.7563 49.6695 32.1807 49.2849C31.6051 48.9004 31.1565 48.3537 30.8916 47.7142C30.6267 47.0746 30.5574 46.3709 30.6924 45.692C30.8275 45.0131 31.1608 44.3894 31.6503 43.8999C32.1398 43.4104 32.7634 43.0771 33.4424 42.9421C34.1213 42.807 34.825 42.8763 35.4646 43.1412C36.1041 43.4061 36.6507 43.8547 37.0353 44.4303C37.4199 45.0059 37.6252 45.6826 37.6252 46.3748C37.6252 47.3031 37.2564 48.1933 36.6001 48.8497C35.9437 49.5061 35.0534 49.8748 34.1252 49.8748ZM36.1661 41.5382C35.5206 41.2643 34.8264 41.1236 34.1252 41.1248C33.855 41.1252 33.5852 41.1457 33.318 41.1861L29.1946 28.8179L41.2477 28.2448C41.4809 29.3162 42.0449 30.2872 42.8599 31.0207L36.1661 41.5382ZM46.3752 30.6248C45.6829 30.6248 45.0063 30.4195 44.4307 30.0349C43.8551 29.6504 43.4065 29.1037 43.1416 28.4642C42.8767 27.8246 42.8074 27.1209 42.9424 26.442C43.0775 25.7631 43.4108 25.1394 43.9003 24.6499C44.3898 24.1604 45.0134 23.8271 45.6924 23.6921C46.3713 23.557 47.075 23.6263 47.7146 23.8912C48.3541 24.1561 48.9007 24.6047 49.2853 25.1803C49.6699 25.7559 49.8752 26.4326 49.8752 27.1248C49.8752 28.0531 49.5064 28.9433 48.8501 29.5997C48.1937 30.256 47.3034 30.6248 46.3752 30.6248Z" fill="url(#paint0_linear_1041_1752)"/>
</g>
<defs>
<linearGradient id="paint0_linear_1041_1752" x1="28.8722" y1="51.6282" x2="28.8722" y2="4.37793" gradientUnits="userSpaceOnUse">
<stop stop-color="#03FFCF"/>
<stop offset="0.9999" stop-color="#1800FF"/>
<stop offset="1" stop-color="#0A0137"/>
</linearGradient>
</defs>
</svg>
