<svg width="20" height="20" viewBox="0 0 20 20" fill="none" xmlns="http://www.w3.org/2000/svg">
<path d="M10.1191 5.875C9.30329 5.875 8.50577 6.11693 7.82741 6.57019C7.14906 7.02345 6.62035 7.66769 6.30814 8.42143C5.99593 9.17518 5.91424 10.0046 6.0734 10.8047C6.23257 11.6049 6.62543 12.3399 7.20232 12.9168C7.77922 13.4937 8.51422 13.8866 9.31439 14.0457C10.1146 14.2049 10.944 14.1232 11.6977 13.811C12.4515 13.4988 13.0957 12.9701 13.549 12.2917C14.0022 11.6134 14.2441 10.8158 14.2441 10C14.2429 8.90636 13.8079 7.85787 13.0346 7.08455C12.2613 6.31124 11.2128 5.87624 10.1191 5.875ZM10.1191 13.375C9.45163 13.375 8.79911 13.1771 8.24409 12.8062C7.68908 12.4354 7.25649 11.9083 7.00105 11.2916C6.7456 10.6749 6.67876 9.99626 6.80899 9.34157C6.93922 8.68688 7.26065 8.08552 7.73266 7.61351C8.20466 7.14151 8.80602 6.82007 9.46071 6.68985C10.1154 6.55962 10.794 6.62646 11.4107 6.88191C12.0274 7.13735 12.5545 7.56993 12.9254 8.12495C13.2962 8.67997 13.4941 9.33249 13.4941 10C13.4941 10.8951 13.1386 11.7535 12.5056 12.3865C11.8727 13.0194 11.0142 13.375 10.1191 13.375ZM14.6191 0.625H5.61914C4.32667 0.626489 3.08756 1.14058 2.17364 2.0545C1.25972 2.96842 0.745629 4.20753 0.744141 5.5V14.5C0.745629 15.7925 1.25972 17.0316 2.17364 17.9455C3.08756 18.8594 4.32667 19.3735 5.61914 19.375H14.6191C15.9116 19.3735 17.1507 18.8594 18.0646 17.9455C18.9786 17.0316 19.4927 15.7925 19.4941 14.5V5.5C19.4927 4.20753 18.9786 2.96842 18.0646 2.0545C17.1507 1.14058 15.9116 0.626489 14.6191 0.625ZM18.7441 14.5C18.7429 15.5936 18.3079 16.6421 17.5346 17.4154C16.7613 18.1888 15.7128 18.6238 14.6191 18.625H5.61914C4.5255 18.6238 3.47701 18.1888 2.7037 17.4154C1.93038 16.6421 1.49538 15.5936 1.49414 14.5V5.5C1.49538 4.40636 1.93038 3.35787 2.7037 2.58455C3.47701 1.81124 4.5255 1.37624 5.61914 1.375H14.6191C15.7128 1.37624 16.7613 1.81124 17.5346 2.58455C18.3079 3.35787 18.7429 4.40636 18.7441 5.5V14.5ZM15.7441 5.125C15.7441 5.27334 15.7002 5.41834 15.6177 5.54168C15.5353 5.66501 15.4182 5.76114 15.2812 5.81791C15.1441 5.87468 14.9933 5.88953 14.8478 5.86059C14.7023 5.83165 14.5687 5.76022 14.4638 5.65533C14.3589 5.55044 14.2875 5.4168 14.2586 5.27132C14.2296 5.12583 14.2445 4.97503 14.3012 4.83799C14.358 4.70094 14.4541 4.58381 14.5775 4.5014C14.7008 4.41899 14.8458 4.375 14.9941 4.375C15.1931 4.375 15.3838 4.45402 15.5245 4.59467C15.6651 4.73532 15.7441 4.92609 15.7441 5.125Z" fill="#1800FF"/>
</svg>
