<svg width="20" height="20" viewBox="0 0 20 20" fill="none" xmlns="http://www.w3.org/2000/svg">
<path d="M18.1191 0.625H1.61914C1.32077 0.625 1.03462 0.743526 0.823646 0.954505C0.612667 1.16548 0.494141 1.45163 0.494141 1.75V18.25C0.494141 18.5484 0.612667 18.8345 0.823646 19.0455C1.03462 19.2565 1.32077 19.375 1.61914 19.375H18.1191C18.4175 19.375 18.7037 19.2565 18.9146 19.0455C19.1256 18.8345 19.2441 18.5484 19.2441 18.25V1.75C19.2441 1.45163 19.1256 1.16548 18.9146 0.954505C18.7037 0.743526 18.4175 0.625 18.1191 0.625ZM18.4941 18.25C18.4941 18.3495 18.4546 18.4448 18.3843 18.5152C18.314 18.5855 18.2186 18.625 18.1191 18.625H1.61914C1.51968 18.625 1.4243 18.5855 1.35398 18.5152C1.28365 18.4448 1.24414 18.3495 1.24414 18.25V1.75C1.24414 1.65054 1.28365 1.55516 1.35398 1.48484C1.4243 1.41451 1.51968 1.375 1.61914 1.375H18.1191C18.2186 1.375 18.314 1.41451 18.3843 1.48484C18.4546 1.55516 18.4941 1.65054 18.4941 1.75V18.25ZM6.49414 8.5V14.5C6.49414 14.5995 6.45463 14.6948 6.38431 14.7652C6.31398 14.8355 6.2186 14.875 6.11914 14.875C6.01968 14.875 5.9243 14.8355 5.85398 14.7652C5.78365 14.6948 5.74414 14.5995 5.74414 14.5V8.5C5.74414 8.40054 5.78365 8.30516 5.85398 8.23483C5.9243 8.16451 6.01968 8.125 6.11914 8.125C6.2186 8.125 6.31398 8.16451 6.38431 8.23483C6.45463 8.30516 6.49414 8.40054 6.49414 8.5ZM14.7441 11.125V14.5C14.7441 14.5995 14.7046 14.6948 14.6343 14.7652C14.564 14.8355 14.4686 14.875 14.3691 14.875C14.2697 14.875 14.1743 14.8355 14.104 14.7652C14.0336 14.6948 13.9941 14.5995 13.9941 14.5V11.125C13.9941 10.5283 13.7571 9.95597 13.3351 9.53401C12.9132 9.11205 12.3409 8.875 11.7441 8.875C11.1474 8.875 10.5751 9.11205 10.1532 9.53401C9.73119 9.95597 9.49414 10.5283 9.49414 11.125V14.5C9.49414 14.5995 9.45463 14.6948 9.38431 14.7652C9.31398 14.8355 9.2186 14.875 9.11914 14.875C9.01968 14.875 8.9243 14.8355 8.85398 14.7652C8.78365 14.6948 8.74414 14.5995 8.74414 14.5V8.5C8.74414 8.40054 8.78365 8.30516 8.85398 8.23483C8.9243 8.16451 9.01968 8.125 9.11914 8.125C9.2186 8.125 9.31398 8.16451 9.38431 8.23483C9.45463 8.30516 9.49414 8.40054 9.49414 8.5V9.14406C9.89701 8.68725 10.4294 8.36389 11.0205 8.21697C11.6116 8.07004 12.2334 8.10651 12.8032 8.32153C13.3731 8.53655 13.864 8.91994 14.2107 9.42071C14.5574 9.92148 14.7435 10.5159 14.7441 11.125ZM6.86914 5.875C6.86914 6.02334 6.82515 6.16834 6.74274 6.29168C6.66033 6.41501 6.5432 6.51114 6.40615 6.56791C6.26911 6.62468 6.11831 6.63953 5.97282 6.61059C5.82734 6.58165 5.6937 6.51022 5.58881 6.40533C5.48392 6.30044 5.41249 6.1668 5.38355 6.02132C5.35461 5.87583 5.36947 5.72503 5.42623 5.58799C5.483 5.45094 5.57913 5.33381 5.70246 5.2514C5.8258 5.16899 5.9708 5.125 6.11914 5.125C6.31805 5.125 6.50882 5.20402 6.64947 5.34467C6.79012 5.48532 6.86914 5.67609 6.86914 5.875Z" fill="#1800FF"/>
</svg>
