<svg width="16" height="18" viewBox="0 0 16 18" fill="none" xmlns="http://www.w3.org/2000/svg">
<path d="M15.9378 17.0483L9.91533 7.5842L15.9031 1.00201C15.97 0.927423 16.0045 0.829316 15.9991 0.729277C15.9936 0.629238 15.9487 0.535462 15.8741 0.468577C15.7995 0.401693 15.7014 0.36718 15.6013 0.37263C15.5013 0.378081 15.4075 0.423048 15.3406 0.49764L9.49815 6.92795L5.43877 0.548265C5.40483 0.495013 5.35799 0.451196 5.30259 0.420877C5.2472 0.390557 5.18505 0.374718 5.1219 0.374827H0.621897C0.5547 0.374879 0.488751 0.392985 0.430948 0.427253C0.373145 0.461521 0.325613 0.510692 0.293321 0.569621C0.261029 0.628551 0.245166 0.695075 0.247389 0.762235C0.249612 0.829396 0.269841 0.894725 0.30596 0.95139L6.32846 10.4155L0.340647 16.9976C0.30753 17.0346 0.282011 17.0777 0.265548 17.1245C0.249086 17.1713 0.242001 17.2208 0.2447 17.2704C0.247399 17.3199 0.259828 17.3684 0.281277 17.4132C0.302726 17.4579 0.332776 17.498 0.36971 17.5311C0.406644 17.5642 0.44974 17.5897 0.496536 17.6062C0.543333 17.6226 0.592913 17.6297 0.642448 17.627C0.691982 17.6243 0.7405 17.6119 0.785231 17.5904C0.829962 17.569 0.87003 17.5389 0.903147 17.502L6.7494 11.0717L10.8088 17.4514C10.8424 17.5041 10.8886 17.5476 10.9433 17.5779C10.998 17.6082 11.0594 17.6243 11.1219 17.6248H15.6219C15.6891 17.6248 15.755 17.6067 15.8128 17.5724C15.8706 17.5381 15.9182 17.489 15.9505 17.43C15.9828 17.3711 15.9986 17.3046 15.9964 17.2374C15.9942 17.1703 15.974 17.1049 15.9378 17.0483ZM11.3281 16.8748L1.30533 1.12483H4.91565L14.9385 16.8748H11.3281Z" fill="#1800FF"/>
</svg>
