<svg width="19" height="20" viewBox="0 0 19 20" fill="none" xmlns="http://www.w3.org/2000/svg">
<path d="M9.36914 0.625C7.51495 0.625 5.70238 1.17483 4.16067 2.20497C2.61896 3.23511 1.41735 4.69929 0.707774 6.41234C-0.00179748 8.1254 -0.187454 10.0104 0.174283 11.829C0.536019 13.6475 1.4289 15.318 2.74002 16.6291C4.05114 17.9402 5.7216 18.8331 7.54017 19.1949C9.35874 19.5566 11.2437 19.3709 12.9568 18.6614C14.6699 17.9518 16.134 16.7502 17.1642 15.2085C18.1943 13.6668 18.7441 11.8542 18.7441 10C18.7414 7.51443 17.7528 5.13145 15.9953 3.37389C14.2377 1.61633 11.8547 0.62773 9.36914 0.625ZM9.74414 18.6166V11.875H12.3691C12.4686 11.875 12.564 11.8355 12.6343 11.7652C12.7046 11.6948 12.7441 11.5995 12.7441 11.5C12.7441 11.4005 12.7046 11.3052 12.6343 11.2348C12.564 11.1645 12.4686 11.125 12.3691 11.125H9.74414V8.5C9.74414 8.00272 9.94169 7.52581 10.2933 7.17417C10.645 6.82254 11.1219 6.625 11.6191 6.625H13.1191C13.2186 6.625 13.314 6.58549 13.3843 6.51517C13.4546 6.44484 13.4941 6.34946 13.4941 6.25C13.4941 6.15054 13.4546 6.05516 13.3843 5.98483C13.314 5.91451 13.2186 5.875 13.1191 5.875H11.6191C10.923 5.875 10.2553 6.15156 9.76299 6.64384C9.27071 7.13613 8.99414 7.80381 8.99414 8.5V11.125H6.36914C6.26969 11.125 6.17431 11.1645 6.10398 11.2348C6.03365 11.3052 5.99414 11.4005 5.99414 11.5C5.99414 11.5995 6.03365 11.6948 6.10398 11.7652C6.17431 11.8355 6.26969 11.875 6.36914 11.875H8.99414V18.6166C6.74126 18.5185 4.61638 17.5421 3.07469 15.8964C1.53301 14.2507 0.69715 12.0667 0.746184 9.81217C0.795218 7.55769 1.72524 5.41208 3.33702 3.83497C4.9488 2.25787 7.11413 1.37472 9.36914 1.37472C11.6242 1.37472 13.7895 2.25787 15.4013 3.83497C17.013 5.41208 17.9431 7.55769 17.9921 9.81217C18.0411 12.0667 17.2053 14.2507 15.6636 15.8964C14.1219 17.5421 11.997 18.5185 9.74414 18.6166Z" fill="#1800FF"/>
</svg>
