<svg width="24" height="25" viewBox="0 0 24 25" fill="none" xmlns="http://www.w3.org/2000/svg">
<g id="FacebookLogo">
<path id="Vector" d="M12 3.58105C10.1458 3.58105 8.33324 4.13089 6.79153 5.16103C5.24982 6.19117 4.04821 7.65534 3.33863 9.3684C2.62906 11.0815 2.44341 12.9665 2.80514 14.785C3.16688 16.6036 4.05976 18.2741 5.37088 19.5852C6.682 20.8963 8.35246 21.7892 10.171 22.1509C11.9896 22.5127 13.8746 22.327 15.5877 21.6174C17.3007 20.9079 18.7649 19.7062 19.795 18.1645C20.8252 16.6228 21.375 14.8103 21.375 12.9561C21.3723 10.4705 20.3837 8.08751 18.6261 6.32994C16.8686 4.57238 14.4856 3.58378 12 3.58105ZM12.375 21.5726V14.8311H15C15.0995 14.8311 15.1948 14.7915 15.2652 14.7212C15.3355 14.6509 15.375 14.5555 15.375 14.4561C15.375 14.3566 15.3355 14.2612 15.2652 14.1909C15.1948 14.1206 15.0995 14.0811 15 14.0811H12.375V11.4561C12.375 10.9588 12.5725 10.4819 12.9242 10.1302C13.2758 9.7786 13.7527 9.58105 14.25 9.58105H15.75C15.8495 9.58105 15.9448 9.54155 16.0152 9.47122C16.0855 9.40089 16.125 9.30551 16.125 9.20605C16.125 9.1066 16.0855 9.01122 16.0152 8.94089C15.9448 8.87056 15.8495 8.83105 15.75 8.83105H14.25C13.5538 8.83105 12.8861 9.10762 12.3938 9.5999C11.9016 10.0922 11.625 10.7599 11.625 11.4561V14.0811H9C8.90055 14.0811 8.80517 14.1206 8.73484 14.1909C8.66451 14.2612 8.625 14.3566 8.625 14.4561C8.625 14.5555 8.66451 14.6509 8.73484 14.7212C8.80517 14.7915 8.90055 14.8311 9 14.8311H11.625V21.5726C9.37212 21.4746 7.24724 20.4981 5.70555 18.8524C4.16387 17.2067 3.32801 15.0227 3.37704 12.7682C3.42608 10.5137 4.3561 8.36813 5.96788 6.79103C7.57966 5.21392 9.74499 4.33077 12 4.33077C14.255 4.33077 16.4204 5.21392 18.0321 6.79103C19.6439 8.36813 20.5739 10.5137 20.623 12.7682C20.672 15.0227 19.8361 17.2067 18.2945 18.8524C16.7528 20.4981 14.6279 21.4746 12.375 21.5726Z" fill="#8E8E8E"/>
</g>
</svg>
