<svg width="24" height="25" viewBox="0 0 24 25" fill="none" xmlns="http://www.w3.org/2000/svg">
<g id="InstagramLogo">
<path id="Vector" d="M12 8.83105C11.1842 8.83105 10.3866 9.07298 9.70827 9.52624C9.02992 9.9795 8.50121 10.6237 8.189 11.3775C7.87679 12.1312 7.7951 12.9606 7.95426 13.7608C8.11343 14.561 8.50629 15.296 9.08318 15.8729C9.66008 16.4498 10.3951 16.8426 11.1953 17.0018C11.9954 17.161 12.8248 17.0793 13.5786 16.7671C14.3323 16.4548 14.9766 15.9261 15.4298 15.2478C15.8831 14.5694 16.125 13.7719 16.125 12.9561C16.1238 11.8624 15.6888 10.8139 14.9154 10.0406C14.1421 9.26729 13.0936 8.8323 12 8.83105ZM12 16.3311C11.3325 16.3311 10.68 16.1331 10.125 15.7623C9.56993 15.3914 9.13735 14.8643 8.88191 14.2476C8.62646 13.6309 8.55962 12.9523 8.68985 12.2976C8.82007 11.6429 9.14151 11.0416 9.61351 10.5696C10.0855 10.0976 10.6869 9.77613 11.3416 9.6459C11.9963 9.51568 12.6749 9.58252 13.2916 9.83796C13.9083 10.0934 14.4354 10.526 14.8062 11.081C15.1771 11.636 15.375 12.2885 15.375 12.9561C15.375 13.8512 15.0194 14.7096 14.3865 15.3425C13.7535 15.9755 12.8951 16.3311 12 16.3311ZM16.5 3.58105H7.5C6.20753 3.58254 4.96842 4.09664 4.0545 5.01055C3.14058 5.92447 2.62649 7.16358 2.625 8.45605V17.4561C2.62649 18.7485 3.14058 19.9876 4.0545 20.9016C4.96842 21.8155 6.20753 22.3296 7.5 22.3311H16.5C17.7925 22.3296 19.0316 21.8155 19.9455 20.9016C20.8594 19.9876 21.3735 18.7485 21.375 17.4561V8.45605C21.3735 7.16358 20.8594 5.92447 19.9455 5.01055C19.0316 4.09664 17.7925 3.58254 16.5 3.58105ZM20.625 17.4561C20.6238 18.5497 20.1888 19.5982 19.4154 20.3715C18.6421 21.1448 17.5936 21.5798 16.5 21.5811H7.5C6.40636 21.5798 5.35787 21.1448 4.58455 20.3715C3.81124 19.5982 3.37624 18.5497 3.375 17.4561V8.45605C3.37624 7.36242 3.81124 6.31393 4.58455 5.54061C5.35787 4.76729 6.40636 4.3323 7.5 4.33105H16.5C17.5936 4.3323 18.6421 4.76729 19.4154 5.54061C20.1888 6.31393 20.6238 7.36242 20.625 8.45605V17.4561ZM17.625 8.08105C17.625 8.22939 17.581 8.3744 17.4986 8.49773C17.4162 8.62107 17.2991 8.7172 17.162 8.77396C17.025 8.83073 16.8742 8.84558 16.7287 8.81664C16.5832 8.7877 16.4496 8.71627 16.3447 8.61138C16.2398 8.5065 16.1684 8.37286 16.1394 8.22737C16.1105 8.08189 16.1253 7.93109 16.1821 7.79404C16.2389 7.657 16.335 7.53986 16.4583 7.45745C16.5817 7.37504 16.7267 7.33105 16.875 7.33105C17.0739 7.33105 17.2647 7.41007 17.4053 7.55072C17.546 7.69138 17.625 7.88214 17.625 8.08105Z" fill="#8E8E8E"/>
</g>
</svg>
