<svg width="24" height="25" viewBox="0 0 24 25" fill="none" xmlns="http://www.w3.org/2000/svg">
<g id="LinkedinLogo">
<path id="Vector" d="M20.25 3.58105H3.75C3.45163 3.58105 3.16548 3.69958 2.9545 3.91056C2.74353 4.12154 2.625 4.40769 2.625 4.70605V21.2061C2.625 21.5044 2.74353 21.7906 2.9545 22.0015C3.16548 22.2125 3.45163 22.3311 3.75 22.3311H20.25C20.5484 22.3311 20.8345 22.2125 21.0455 22.0015C21.2565 21.7906 21.375 21.5044 21.375 21.2061V4.70605C21.375 4.40769 21.2565 4.12154 21.0455 3.91056C20.8345 3.69958 20.5484 3.58105 20.25 3.58105ZM20.625 21.2061C20.625 21.3055 20.5855 21.4009 20.5152 21.4712C20.4448 21.5415 20.3495 21.5811 20.25 21.5811H3.75C3.65054 21.5811 3.55516 21.5415 3.48484 21.4712C3.41451 21.4009 3.375 21.3055 3.375 21.2061V4.70605C3.375 4.6066 3.41451 4.51122 3.48484 4.44089C3.55516 4.37056 3.65054 4.33105 3.75 4.33105H20.25C20.3495 4.33105 20.4448 4.37056 20.5152 4.44089C20.5855 4.51122 20.625 4.6066 20.625 4.70605V21.2061ZM8.625 11.4561V17.4561C8.625 17.5555 8.58549 17.6509 8.51517 17.7212C8.44484 17.7915 8.34946 17.8311 8.25 17.8311C8.15054 17.8311 8.05516 17.7915 7.98483 17.7212C7.91451 17.6509 7.875 17.5555 7.875 17.4561V11.4561C7.875 11.3566 7.91451 11.2612 7.98483 11.1909C8.05516 11.1206 8.15054 11.0811 8.25 11.0811C8.34946 11.0811 8.44484 11.1206 8.51517 11.1909C8.58549 11.2612 8.625 11.3566 8.625 11.4561ZM16.875 14.0811V17.4561C16.875 17.5555 16.8355 17.6509 16.7652 17.7212C16.6948 17.7915 16.5995 17.8311 16.5 17.8311C16.4005 17.8311 16.3052 17.7915 16.2348 17.7212C16.1645 17.6509 16.125 17.5555 16.125 17.4561V14.0811C16.125 13.4843 15.8879 12.912 15.466 12.4901C15.044 12.0681 14.4717 11.8311 13.875 11.8311C13.2783 11.8311 12.706 12.0681 12.284 12.4901C11.8621 12.912 11.625 13.4843 11.625 14.0811V17.4561C11.625 17.5555 11.5855 17.6509 11.5152 17.7212C11.4448 17.7915 11.3495 17.8311 11.25 17.8311C11.1505 17.8311 11.0552 17.7915 10.9848 17.7212C10.9145 17.6509 10.875 17.5555 10.875 17.4561V11.4561C10.875 11.3566 10.9145 11.2612 10.9848 11.1909C11.0552 11.1206 11.1505 11.0811 11.25 11.0811C11.3495 11.0811 11.4448 11.1206 11.5152 11.1909C11.5855 11.2612 11.625 11.3566 11.625 11.4561V12.1001C12.0279 11.6433 12.5602 11.3199 13.1513 11.173C13.7424 11.0261 14.3642 11.0626 14.9341 11.2776C15.5039 11.4926 15.9949 11.876 16.3416 12.3768C16.6883 12.8775 16.8743 13.472 16.875 14.0811ZM9 8.83105C9 8.97939 8.95601 9.1244 8.8736 9.24773C8.79119 9.37107 8.67406 9.4672 8.53701 9.52396C8.39997 9.58073 8.24917 9.59558 8.10368 9.56664C7.9582 9.5377 7.82456 9.46627 7.71967 9.36138C7.61478 9.2565 7.54335 9.12286 7.51441 8.97737C7.48547 8.83189 7.50032 8.68109 7.55709 8.54404C7.61386 8.407 7.70999 8.28986 7.83332 8.20745C7.95666 8.12504 8.10166 8.08105 8.25 8.08105C8.44891 8.08105 8.63968 8.16007 8.78033 8.30072C8.92098 8.44138 9 8.63214 9 8.83105Z" fill="#8E8E8E"/>
</g>
</svg>
