<svg width="24" height="25" viewBox="0 0 24 25" fill="none" xmlns="http://www.w3.org/2000/svg">
<g id="XLogo">
<path id="Vector" d="M19.8159 21.0043L13.7934 11.5403L19.7812 4.95807C19.8481 4.88348 19.8826 4.78537 19.8771 4.68533C19.8717 4.58529 19.8267 4.49152 19.7521 4.42463C19.6775 4.35775 19.5794 4.32323 19.4794 4.32868C19.3794 4.33414 19.2856 4.3791 19.2187 4.45369L13.3762 10.884L9.31682 4.50432C9.28288 4.45107 9.23604 4.40725 9.18065 4.37693C9.12525 4.34661 9.0631 4.33077 8.99995 4.33088H4.49995C4.43275 4.33093 4.3668 4.34904 4.309 4.38331C4.2512 4.41758 4.20366 4.46675 4.17137 4.52568C4.13908 4.58461 4.12322 4.65113 4.12544 4.71829C4.12766 4.78545 4.14789 4.85078 4.18401 4.90744L10.2065 14.3715L4.2187 20.9537C4.18558 20.9906 4.16006 21.0337 4.1436 21.0805C4.12714 21.1273 4.12005 21.1769 4.12275 21.2264C4.12545 21.276 4.13788 21.3245 4.15933 21.3692C4.18078 21.4139 4.21083 21.454 4.24776 21.4871C4.2847 21.5202 4.32779 21.5458 4.37459 21.5622C4.42138 21.5787 4.47097 21.5858 4.5205 21.5831C4.57003 21.5804 4.61855 21.5679 4.66328 21.5465C4.70801 21.5251 4.74808 21.495 4.7812 21.4581L10.6274 15.0278L14.6868 21.4074C14.7204 21.4602 14.7667 21.5036 14.8214 21.5339C14.876 21.5642 14.9374 21.5804 14.9999 21.5809H19.4999C19.5671 21.5808 19.6331 21.5627 19.6909 21.5285C19.7487 21.4942 19.7962 21.445 19.8285 21.3861C19.8608 21.3272 19.8767 21.2606 19.8745 21.1935C19.8722 21.1263 19.852 21.061 19.8159 21.0043ZM15.2062 20.8309L5.18339 5.08088H8.7937L18.8165 20.8309H15.2062Z" fill="#8E8E8E"/>
</g>
</svg>
