<svg width="24" height="25" viewBox="0 0 24 25" fill="none" xmlns="http://www.w3.org/2000/svg">
<g id="YoutubeLogo">
<path id="Vector" d="M15.2081 12.6439L10.7081 9.64389C10.6516 9.6062 10.586 9.58456 10.5181 9.58127C10.4503 9.57798 10.3829 9.59318 10.323 9.62523C10.2631 9.65728 10.2131 9.70498 10.1782 9.76325C10.1434 9.82152 10.125 9.88817 10.125 9.95607V15.9561C10.1249 16.024 10.1433 16.0906 10.1781 16.1489C10.213 16.2072 10.263 16.2549 10.3228 16.287C10.3827 16.3191 10.4502 16.3343 10.5181 16.331C10.5859 16.3277 10.6516 16.306 10.7081 16.2683L15.2081 13.2683C15.2596 13.234 15.3017 13.1876 15.3309 13.1332C15.3601 13.0787 15.3754 13.0179 15.3754 12.9561C15.3754 12.8943 15.3601 12.8335 15.3309 12.779C15.3017 12.7245 15.2596 12.6781 15.2081 12.6439ZM10.875 15.2558V10.6564L14.3241 12.9561L10.875 15.2558ZM21.6056 7.56826C21.5323 7.28017 21.3916 7.01363 21.195 6.79064C20.9984 6.56765 20.7516 6.3946 20.475 6.28576C17.3062 5.06139 12.2128 5.08107 12 5.08107C11.7872 5.08107 6.69375 5.06139 3.525 6.28576C3.24848 6.39451 3.00176 6.56742 2.80519 6.79024C2.60861 7.01306 2.4678 7.2794 2.39438 7.56732C2.15625 8.48139 1.875 10.1586 1.875 12.9561C1.875 15.7536 2.15625 17.4308 2.39438 18.3448C2.4678 18.6327 2.60861 18.8991 2.80519 19.1219C3.00176 19.3447 3.24848 19.5176 3.525 19.6264C6.69375 20.8508 11.7872 20.8311 12 20.8311H12.0666C12.7125 20.8311 17.4647 20.7908 20.4778 19.6264C20.7543 19.5176 21.0011 19.3447 21.1976 19.1219C21.3942 18.8991 21.535 18.6327 21.6084 18.3448C21.8438 17.4298 22.125 15.7536 22.125 12.9561C22.125 10.1586 21.8438 8.48139 21.6056 7.56732V7.56826ZM20.88 18.162C20.8364 18.3348 20.7524 18.4948 20.6349 18.6288C20.5174 18.7628 20.3697 18.8669 20.2041 18.9326C17.1694 20.0989 12.0534 20.0811 12 20.0811C11.9466 20.0811 6.83344 20.0989 3.79875 18.927C3.6331 18.8613 3.48543 18.7571 3.36791 18.6232C3.25039 18.4892 3.16639 18.3292 3.12281 18.1564C2.89406 17.2845 2.625 15.6748 2.625 12.9561C2.625 10.2373 2.89406 8.62764 3.12 7.75576C3.16357 7.58295 3.24758 7.42297 3.3651 7.28899C3.48262 7.15501 3.63028 7.05087 3.79594 6.98514C6.83063 5.81326 11.9466 5.83107 12 5.83107C12.0534 5.83107 17.1666 5.81232 20.2013 6.98514C20.3669 7.05087 20.5146 7.15501 20.6321 7.28899C20.7496 7.42297 20.8336 7.58295 20.8772 7.75576C21.1059 8.62764 21.375 10.2373 21.375 12.9561C21.375 15.6748 21.1059 17.2845 20.88 18.1564V18.162Z" fill="#8E8E8E"/>
</g>
</svg>
