<svg width="40" height="40" viewBox="0 0 40 40" fill="none" xmlns="http://www.w3.org/2000/svg">
<path d="M33.1249 15.6252C32.488 15.6229 31.8612 15.7843 31.3046 16.094L25.9218 9.37521C26.3507 8.89491 26.6487 8.31226 26.7871 7.68338C26.9255 7.0545 26.8996 6.40059 26.7119 5.78461C26.5243 5.16863 26.1812 4.61136 25.7157 4.16646C25.2502 3.72155 24.6779 3.40402 24.0541 3.24443C23.4302 3.08485 22.7758 3.08859 22.1539 3.2553C21.5319 3.422 20.9633 3.74606 20.5029 4.19626C20.0425 4.64645 19.7058 5.20762 19.5252 5.8257C19.3446 6.44378 19.3262 7.09795 19.4718 7.72521L11.2952 11.1268C10.9585 10.5913 10.4919 10.1496 9.93861 9.84299C9.38537 9.53633 8.76354 9.37459 8.131 9.37284C7.49845 9.37109 6.87574 9.52937 6.3208 9.83296C5.76587 10.1366 5.29675 10.5756 4.95709 11.1092C4.61743 11.6428 4.41828 12.2537 4.37816 12.885C4.33804 13.5163 4.45825 14.1474 4.72762 14.7197C4.99699 15.2921 5.40676 15.787 5.91879 16.1584C6.43083 16.5298 7.02849 16.7656 7.65617 16.844L7.98586 25.0799C7.36012 25.2097 6.77793 25.4973 6.29456 25.9153C5.81118 26.3333 5.44266 26.868 5.22397 27.4684C5.00528 28.0689 4.94367 28.7153 5.045 29.3463C5.14633 29.9773 5.40723 30.5719 5.80293 31.0737C6.19864 31.5755 6.71603 31.9679 7.30598 32.2136C7.89594 32.4592 8.53889 32.5501 9.17381 32.4774C9.80873 32.4048 10.4146 32.1711 10.9338 31.7985C11.453 31.4259 11.8684 30.9269 12.1405 30.3486L20.6452 32.7299C20.6327 32.8596 20.6249 32.9924 20.6249 33.1252C20.6245 33.7502 20.7803 34.3654 21.0782 34.9149C21.3761 35.4643 21.8065 35.9306 22.3305 36.2714C22.8545 36.6121 23.4553 36.8165 24.0783 36.8659C24.7014 36.9153 25.3269 36.8083 25.898 36.5544C26.4691 36.3006 26.9678 35.908 27.3486 35.4124C27.7294 34.9168 27.9802 34.3338 28.0784 33.7166C28.1765 33.0993 28.1189 32.4673 27.9106 31.8781C27.7023 31.2888 27.3501 30.7609 26.8859 30.3424L31.6671 22.8299C32.1282 23.0256 32.624 23.126 33.1249 23.1252C34.1195 23.1252 35.0733 22.7301 35.7766 22.0269C36.4798 21.3236 36.8749 20.3698 36.8749 19.3752C36.8749 18.3806 36.4798 17.4268 35.7766 16.7236C35.0733 16.0203 34.1195 15.6252 33.1249 15.6252ZM29.403 18.9268L20.7999 19.3361L22.8765 10.6158C22.9588 10.6221 23.0416 10.6252 23.1249 10.6252C23.7618 10.6276 24.3887 10.4661 24.9452 10.1565L30.328 16.8752C29.8162 17.4477 29.4932 18.1641 29.403 18.9268ZM11.278 25.9877C10.7083 25.4635 9.98976 25.1294 9.22179 25.0315L8.89211 16.7955C9.72013 16.6196 10.4645 16.1692 11.0046 15.5174L18.8796 20.0768L11.278 25.9877ZM23.1249 4.37521C23.6194 4.37521 24.1027 4.52183 24.5138 4.79653C24.925 5.07123 25.2454 5.46168 25.4346 5.9185C25.6238 6.37531 25.6733 6.87798 25.5769 7.36293C25.4804 7.84788 25.2423 8.29334 24.8927 8.64297C24.5431 8.9926 24.0976 9.23071 23.6126 9.32717C23.1277 9.42363 22.625 9.37412 22.1682 9.1849C21.7114 8.99569 21.3209 8.67525 21.0462 8.26413C20.7715 7.85301 20.6249 7.36966 20.6249 6.87521C20.6249 6.21216 20.8883 5.57628 21.3572 5.10744C21.826 4.6386 22.4619 4.37521 23.1249 4.37521ZM19.9546 8.87364C20.3619 9.52062 20.9573 10.0276 21.6609 10.3268L19.5859 19.0393L11.6374 14.4361C11.7948 14.017 11.8752 13.5729 11.8749 13.1252C11.8746 12.8407 11.8421 12.5571 11.778 12.2799L19.9546 8.87364ZM5.62492 13.1252C5.62492 12.6308 5.77154 12.1474 6.04625 11.7363C6.32095 11.3252 6.7114 11.0047 7.16821 10.8155C7.62503 10.6263 8.12769 10.5768 8.61265 10.6732C9.0976 10.7697 9.54306 11.0078 9.89269 11.3574C10.2423 11.7071 10.4804 12.1525 10.5769 12.6375C10.6733 13.1224 10.6238 13.6251 10.4346 14.0819C10.2454 14.5387 9.92497 14.9292 9.51384 15.2039C9.10272 15.4786 8.61937 15.6252 8.12492 15.6252C7.46188 15.6252 6.82599 15.3618 6.35715 14.893C5.88831 14.4241 5.62492 13.7882 5.62492 13.1252ZM8.74992 31.2502C8.25547 31.2502 7.77212 31.1036 7.36099 30.8289C6.94987 30.5542 6.62944 30.1637 6.44022 29.7069C6.251 29.2501 6.20149 28.7474 6.29796 28.2625C6.39442 27.7775 6.63252 27.3321 6.98215 26.9824C7.33178 26.6328 7.77724 26.3947 8.26219 26.2982C8.74715 26.2018 9.24981 26.2513 9.70663 26.4405C10.1634 26.6297 10.5539 26.9502 10.8286 27.3613C11.1033 27.7724 11.2499 28.2558 11.2499 28.7502C11.2499 29.4132 10.9865 30.0491 10.5177 30.518C10.0488 30.9868 9.41296 31.2502 8.74992 31.2502ZM12.4796 29.1455C12.4921 29.0158 12.4999 28.883 12.4999 28.7502C12.5006 28.1299 12.3464 27.5193 12.0515 26.9736L19.6859 21.0361L22.6124 29.8158C21.8995 30.1994 21.3288 30.802 20.9843 31.5346L12.4796 29.1455ZM24.3749 35.6252C23.8805 35.6252 23.3971 35.4786 22.986 35.2039C22.5749 34.9292 22.2544 34.5387 22.0652 34.0819C21.876 33.6251 21.8265 33.1224 21.923 32.6375C22.0194 32.1525 22.2575 31.7071 22.6072 31.3574C22.9568 31.0078 23.4022 30.7697 23.8872 30.6732C24.3721 30.5768 24.8748 30.6263 25.3316 30.8155C25.7884 31.0047 26.1789 31.3252 26.4536 31.7363C26.7283 32.1474 26.8749 32.6308 26.8749 33.1252C26.8749 33.7882 26.6115 34.4241 26.1427 34.893C25.6738 35.3618 25.038 35.6252 24.3749 35.6252ZM25.8327 29.6705C25.3717 29.4748 24.8758 29.3744 24.3749 29.3752C24.1819 29.3755 23.9892 29.3901 23.7984 29.419L20.853 20.5846L29.4624 20.1752C29.629 20.9405 30.0319 21.6341 30.614 22.158L25.8327 29.6705ZM33.1249 21.8752C32.6305 21.8752 32.1471 21.7286 31.736 21.4539C31.3249 21.1792 31.0044 20.7887 30.8152 20.3319C30.626 19.8751 30.5765 19.3724 30.673 18.8875C30.7694 18.4025 31.0075 17.9571 31.3572 17.6074C31.7068 17.2578 32.1522 17.0197 32.6372 16.9232C33.1221 16.8268 33.6248 16.8763 34.0816 17.0655C34.5384 17.2547 34.9289 17.5752 35.2036 17.9863C35.4783 18.3974 35.6249 18.8808 35.6249 19.3752C35.6249 20.0382 35.3615 20.6741 34.8927 21.143C34.4238 21.6118 33.788 21.8752 33.1249 21.8752Z" fill="#1B1AFF"/>
</svg>
