<svg width="56" height="56" viewBox="0 0 56 56" fill="none" xmlns="http://www.w3.org/2000/svg">
<g id="Bandaids">
<path id="Vector" d="M39.7556 28L46.1278 21.6278C46.9023 20.8565 47.5171 19.94 47.937 18.9308C48.3568 17.9216 48.5735 16.8395 48.5747 15.7464C48.5758 14.6533 48.3614 13.5708 47.9436 12.5607C47.5258 11.5506 46.9129 10.6329 46.14 9.85997C45.3671 9.08706 44.4493 8.47417 43.4393 8.0564C42.4292 7.63862 41.3466 7.42416 40.2536 7.4253C39.1605 7.42643 38.0784 7.64313 37.0692 8.063C36.06 8.48286 35.1435 9.09765 34.3722 9.87216L28 16.2443L21.6278 9.87216C20.8565 9.09765 19.94 8.48286 18.9308 8.063C17.9216 7.64313 16.8395 7.42643 15.7464 7.4253C14.6534 7.42416 13.5708 7.63862 12.5607 8.0564C11.5507 8.47417 10.6329 9.08706 9.86 9.85997C9.08709 10.6329 8.4742 11.5506 8.05643 12.5607C7.63865 13.5708 7.4242 14.6533 7.42533 15.7464C7.42646 16.8395 7.64316 17.9216 8.06303 18.9308C8.48289 19.94 9.09768 20.8565 9.87219 21.6278L16.2444 28L9.87219 34.3722C9.09768 35.1435 8.48289 36.06 8.06303 37.0692C7.64316 38.0784 7.42646 39.1605 7.42533 40.2535C7.4242 41.3466 7.63865 42.4292 8.05643 43.4392C8.4742 44.4493 9.08709 45.3671 9.86 46.14C10.6329 46.9129 11.5507 47.5258 12.5607 47.9435C13.5708 48.3613 14.6534 48.5758 15.7464 48.5746C16.8395 48.5735 17.9216 48.3568 18.9308 47.9369C19.94 47.5171 20.8565 46.9023 21.6278 46.1278L28 39.7556L34.3722 46.1278C35.1435 46.9023 36.06 47.5171 37.0692 47.9369C38.0784 48.3568 39.1605 48.5735 40.2536 48.5746C41.3466 48.5758 42.4292 48.3613 43.4393 47.9435C44.4493 47.5258 45.3671 46.9129 46.14 46.14C46.9129 45.3671 47.5258 44.4493 47.9436 43.4392C48.3614 42.4292 48.5758 41.3466 48.5747 40.2535C48.5735 39.1605 48.3568 38.0784 47.937 37.0692C47.5171 36.06 46.9023 35.1435 46.1278 34.3722L39.7556 28ZM36.2294 11.7293C36.7544 11.1876 37.382 10.7558 38.0756 10.459C38.7692 10.1622 39.5149 10.0063 40.2693 10.0005C41.0237 9.99463 41.7717 10.1389 42.4698 10.425C43.1679 10.7111 43.8021 11.1331 44.3355 11.6667C44.8689 12.2002 45.2908 12.8345 45.5767 13.5327C45.8625 14.2309 46.0066 14.9789 46.0006 15.7333C45.9946 16.4877 45.8385 17.2334 45.5415 17.9269C45.2445 18.6204 44.8125 19.2479 44.2706 19.7728L37.8984 26.145L29.8572 18.1015L36.2294 11.7293ZM36.0434 28L28 36.0434L19.9566 28L28 19.9565L36.0434 28ZM11.7294 19.7706C11.1815 19.2471 10.7437 18.6194 10.4417 17.9243C10.1398 17.2293 9.97984 16.4809 9.97121 15.7231C9.96257 14.9654 10.1054 14.2135 10.3915 13.5118C10.6775 12.81 11.1008 12.1725 11.6367 11.6366C12.1725 11.1008 12.81 10.6774 13.5118 10.3914C14.2136 10.1054 14.9654 9.96254 15.7232 9.97117C16.4809 9.97981 17.2293 10.1398 17.9244 10.4417C18.6194 10.7436 19.2471 11.1814 19.7706 11.7293L26.1428 18.1015L18.1016 26.145L11.7294 19.7706ZM19.7706 44.2706C19.2471 44.8185 18.6194 45.2563 17.9244 45.5582C17.2293 45.8602 16.4809 46.0201 15.7232 46.0288C14.9654 46.0374 14.2136 45.8945 13.5118 45.6085C12.81 45.3225 12.1725 44.8992 11.6367 44.3633C11.1008 43.8275 10.6775 43.1899 10.3915 42.4882C10.1054 41.7864 9.96257 41.0346 9.97121 40.2768C9.97984 39.5191 10.1398 38.7707 10.4417 38.0756C10.7437 37.3806 11.1815 36.7528 11.7294 36.2293L18.1016 29.8572L26.1428 37.8984L19.7706 44.2706ZM44.2706 44.2706C43.2041 45.3366 41.7579 45.9354 40.25 45.9354C38.7421 45.9354 37.2959 45.3366 36.2294 44.2706L29.855 37.8984L37.8984 29.855L44.2706 36.2293C45.3366 37.2959 45.9354 38.7421 45.9354 40.25C45.9354 41.7579 45.3366 43.2041 44.2706 44.2706ZM25.8125 28C25.8125 27.5673 25.9408 27.1444 26.1812 26.7847C26.4215 26.4249 26.7632 26.1446 27.1629 25.979C27.5626 25.8134 28.0024 25.7701 28.4268 25.8545C28.8511 25.9389 29.2409 26.1472 29.5468 26.4532C29.8527 26.7591 30.0611 27.1489 30.1455 27.5732C30.2299 27.9975 30.1866 28.4374 30.021 28.8371C29.8554 29.2368 29.575 29.5784 29.2153 29.8188C28.8556 30.0592 28.4326 30.1875 28 30.1875C27.4198 30.1875 26.8634 29.957 26.4532 29.5468C26.043 29.1365 25.8125 28.5801 25.8125 28Z" fill="#161616"/>
</g>
</svg>
