<svg width="56" height="56" viewBox="0 0 56 56" fill="none" xmlns="http://www.w3.org/2000/svg">
<g id="FlagBannerFold">
<path id="Vector" d="M51.8437 9.78906C51.7257 9.60587 51.5639 9.45495 51.3729 9.34993C51.182 9.24491 50.9679 9.18909 50.7499 9.1875H33.2499C32.9979 9.18765 32.7513 9.26033 32.5395 9.39687C32.3277 9.53341 32.1597 9.72804 32.0556 9.9575L30.019 14.4375H6.12495C5.87218 14.4389 5.62517 14.5132 5.41362 14.6515C5.20206 14.7899 5.03496 14.9863 4.93238 15.2174C4.82981 15.4484 4.79613 15.7041 4.83539 15.9538C4.87465 16.2035 4.98518 16.4366 5.1537 16.625L13.1009 25.375L5.1537 34.125C4.98518 34.3134 4.87465 34.5465 4.83539 34.7962C4.79613 35.0459 4.82981 35.3016 4.93238 35.5326C5.03496 35.7637 5.20206 35.9601 5.41362 36.0985C5.62517 36.2368 5.87218 36.3111 6.12495 36.3125H22.1134C22.3654 36.3124 22.612 36.2397 22.8238 36.1031C23.0356 35.9666 23.2036 35.772 23.3078 35.5425L25.3443 31.0625H39.9612L32.0556 48.4575C31.9846 48.6146 31.9452 48.7842 31.9398 48.9565C31.9343 49.1289 31.9629 49.3006 32.0238 49.4619C32.0848 49.6232 32.1769 49.7709 32.2949 49.8966C32.413 50.0223 32.5546 50.1235 32.7118 50.1944C32.8806 50.272 33.0642 50.3123 33.2499 50.3125C33.5019 50.3124 33.7486 50.2397 33.9604 50.1031C34.1721 49.9666 34.3402 49.772 34.4443 49.5425L51.9443 11.0425C52.0338 10.8418 52.0715 10.6219 52.0539 10.4029C52.0363 10.184 51.964 9.97287 51.8437 9.78906ZM21.269 33.6875H9.0912L15.8462 26.25C16.0663 26.0083 16.1883 25.6932 16.1883 25.3662C16.1883 25.0393 16.0663 24.7242 15.8462 24.4825L9.0912 17.0625H28.8246L21.269 33.6875ZM41.1556 28.4375H26.5387L34.0943 11.8125H48.7112L41.1556 28.4375Z" fill="black"/>
</g>
</svg>
