<svg width="56" height="56" viewBox="0 0 56 56" fill="none" xmlns="http://www.w3.org/2000/svg">
<g id="Planet">
<path id="Vector" d="M53.2415 13.4926C51.6578 10.7626 47.3353 10.2114 40.7203 11.8542C37.6902 9.46315 34.0479 7.97406 30.2106 7.5575C26.3734 7.14095 22.4964 7.81378 19.0238 9.49891C15.5513 11.184 12.6237 13.8133 10.5764 17.0855C8.52919 20.3576 7.44512 24.1403 7.44842 28.0001C7.44853 28.9514 7.51432 29.9016 7.6453 30.8439C2.86342 35.7395 1.17905 39.7645 2.76936 42.5076C3.75374 44.2051 5.83186 45.0648 8.86374 45.0648C10.7063 45.033 12.54 44.8012 14.3325 44.3735C14.6497 44.3035 14.9712 44.2248 15.2972 44.1548C18.5198 46.6949 22.429 48.2122 26.5214 48.5113C30.6139 48.8104 34.7021 47.8775 38.2598 45.8329C41.8175 43.7883 44.6816 40.7255 46.4835 37.0389C48.2853 33.3524 48.9424 29.2108 48.37 25.1476C51.1372 22.3039 52.9878 19.6089 53.5894 17.3601C53.9787 15.866 53.865 14.5667 53.2415 13.4926ZM28 10.0626C32.1073 10.0682 36.0887 11.4813 39.2806 14.0662C42.4725 16.6511 44.6823 20.2518 45.5415 24.2682C42.0415 27.6151 37.1984 31.196 31.6947 34.357C25.7009 37.8045 20.2978 40.0314 15.9359 41.2564C13.2631 38.8199 11.3893 35.6324 10.5602 32.1121C9.73112 28.5918 9.98555 24.903 11.2901 21.5299C12.5947 18.1567 14.8884 15.2567 17.8704 13.2103C20.8524 11.1638 24.3833 10.0666 28 10.0626ZM5.03124 41.1907C4.26124 39.8629 5.53655 37.1307 8.31249 33.972C9.22109 36.9573 10.7973 39.6967 12.9215 41.9826C8.62311 42.8182 5.7728 42.4551 5.03124 41.1907ZM28 45.9376C24.6456 45.941 21.3585 44.9969 18.5172 43.2142C23.0409 41.7464 28.0459 39.4823 33.0028 36.6342C37.9969 33.7642 42.4375 30.5814 45.92 27.4664C45.92 27.6435 45.9331 27.8207 45.9331 28.0001C45.9285 32.7552 44.0378 37.3144 40.6758 40.6772C37.3138 44.04 32.7551 45.9318 28 45.9376ZM51.0453 16.671C50.634 18.2023 49.4528 20.0595 47.6853 22.0545C46.7778 19.0621 45.1991 16.3163 43.0697 14.0264C46.5303 13.3592 50.0697 13.2629 50.9709 14.8095C51.2312 15.2579 51.2553 15.8857 51.0453 16.671Z" fill="#161616"/>
</g>
</svg>
