<svg width="56" height="56" viewBox="0 0 56 56" fill="none" xmlns="http://www.w3.org/2000/svg">
<g id="Rocket">
<path id="Vector" d="M32.8125 49.0001C32.8125 49.3482 32.6742 49.6821 32.4281 49.9282C32.1819 50.1744 31.8481 50.3126 31.5 50.3126H24.5C24.1519 50.3126 23.8181 50.1744 23.5719 49.9282C23.3258 49.6821 23.1875 49.3482 23.1875 49.0001C23.1875 48.652 23.3258 48.3182 23.5719 48.0721C23.8181 47.8259 24.1519 47.6876 24.5 47.6876H31.5C31.8481 47.6876 32.1819 47.8259 32.4281 48.0721C32.6742 48.3182 32.8125 48.652 32.8125 49.0001ZM28 24.0626C28.4326 24.0626 28.8556 23.9343 29.2153 23.694C29.575 23.4536 29.8554 23.112 30.021 22.7122C30.1865 22.3125 30.2299 21.8727 30.1455 21.4484C30.0611 21.024 29.8527 20.6343 29.5468 20.3283C29.2409 20.0224 28.8511 19.8141 28.4267 19.7297C28.0024 19.6453 27.5626 19.6886 27.1629 19.8541C26.7632 20.0197 26.4215 20.3001 26.1811 20.6598C25.9408 21.0196 25.8125 21.4425 25.8125 21.8751C25.8125 22.4553 26.043 23.0117 26.4532 23.4219C26.8634 23.8322 27.4198 24.0626 28 24.0626ZM48.4903 33.9939L45.7866 46.1564C45.6749 46.6621 45.4369 47.1313 45.0947 47.5201C44.7525 47.9088 44.3172 48.2044 43.8297 48.3792C43.3422 48.554 42.8183 48.6024 42.307 48.5197C41.7957 48.437 41.3138 48.226 40.9062 47.9064L34.8272 43.3126H21.1794L15.0937 47.9064C14.6862 48.2275 14.2037 48.4398 13.6915 48.5234C13.1794 48.6069 12.6544 48.559 12.1659 48.3841C11.6774 48.2091 11.2413 47.9129 10.8986 47.5233C10.556 47.1336 10.3179 46.6633 10.2069 46.1564L7.50968 33.9939C7.40903 33.5367 7.41406 33.0627 7.52437 32.6078C7.63469 32.1529 7.84738 31.7291 8.14624 31.3689L14.49 23.7651C14.6862 21.0081 15.3121 18.2986 16.345 15.7348C19.1275 8.76107 24.115 4.38607 26.1297 2.82857C26.6667 2.41208 27.327 2.18604 28.0066 2.18604C28.6861 2.18604 29.3464 2.41208 29.8834 2.82857C31.8981 4.38607 36.8834 8.76107 39.6681 15.7348C40.701 18.2986 41.3269 21.0081 41.5231 23.7651L47.8669 31.3689C48.1635 31.7303 48.3738 32.1545 48.4818 32.6094C48.5898 33.0642 48.5927 33.5377 48.4903 33.9939ZM21.4944 40.6876H34.5056C39.3028 32.2745 40.2194 24.2092 37.2247 16.7083C34.6106 10.1458 29.7106 6.01794 28.2712 4.89575C28.194 4.83472 28.0984 4.80152 28 4.80152C27.9015 4.80152 27.806 4.83472 27.7287 4.89575C26.2894 6.00919 21.385 10.1458 18.7753 16.7083C15.7806 24.2092 16.6972 32.2745 21.4944 40.6876ZM19.0312 41.6501C16.4062 36.9492 14.8969 32.3314 14.5206 27.8273L10.1631 33.0489C10.1203 33.1001 10.0897 33.1604 10.0738 33.2253C10.0579 33.2901 10.057 33.3577 10.0712 33.4229L12.7772 45.5942C12.7933 45.6667 12.8275 45.7339 12.8768 45.7895C12.926 45.8451 12.9886 45.8872 13.0586 45.912C13.1286 45.9367 13.2038 45.9432 13.277 45.9308C13.3503 45.9185 13.4191 45.8877 13.4772 45.8414L13.5056 45.8173L19.0312 41.6501ZM45.8434 33.0489L41.4925 27.8273C41.1162 32.3314 39.6112 36.9492 36.9819 41.6501L42.5009 45.8064L42.5294 45.8304C42.5874 45.8768 42.6563 45.9075 42.7295 45.9199C42.8027 45.9322 42.8779 45.9257 42.9479 45.901C43.018 45.8763 43.0805 45.8341 43.1298 45.7786C43.179 45.723 43.2133 45.6558 43.2294 45.5833L45.9375 33.4229C45.9506 33.3571 45.9483 33.289 45.9308 33.2242C45.9134 33.1593 45.8812 33.0993 45.8369 33.0489H45.8434Z" fill="black"/>
</g>
</svg>
