<svg width="56" height="56" viewBox="0 0 56 56" fill="none" xmlns="http://www.w3.org/2000/svg">
<path d="M28 6.125C27.7679 6.125 27.5453 6.21719 27.3812 6.38128C27.2171 6.54538 27.125 6.76794 27.125 7V19.25C27.125 19.4821 27.2171 19.7046 27.3812 19.8687C27.5453 20.0328 27.7679 20.125 28 20.125C29.7335 20.1251 31.4185 20.6973 32.7937 21.7527C34.169 22.8081 35.1575 24.2878 35.6061 25.9623C36.0546 27.6368 35.9382 29.4125 35.2747 31.014C34.6112 32.6156 33.4378 33.9534 31.9365 34.8201C30.4352 35.6868 28.6898 36.0339 26.9711 35.8076C25.2524 35.5813 23.6565 34.7942 22.4307 33.5683C21.2049 32.3425 20.4179 30.7465 20.1916 29.0278C19.9654 27.3091 20.3126 25.5638 21.1793 24.0625C21.2369 23.9629 21.2743 23.8528 21.2893 23.7387C21.3043 23.6246 21.2967 23.5087 21.2668 23.3975C21.2369 23.2863 21.1854 23.1822 21.1152 23.091C21.0451 22.9998 20.9576 22.9233 20.8578 22.8659L10.2484 16.7409C10.0473 16.6253 9.80861 16.5942 9.58465 16.6545C9.36069 16.7148 9.16983 16.8616 9.05402 17.0625C6.64633 21.2327 5.68195 26.0809 6.31044 30.8551C6.93893 35.6292 9.12516 40.0626 12.5301 43.4677C15.935 46.8727 20.3683 49.0591 25.1425 49.6878C29.9166 50.3164 34.7648 49.3522 38.9351 46.9447C43.1054 44.5372 46.3648 40.8209 48.2078 36.3721C50.0508 31.9234 50.3743 26.9909 49.1283 22.3395C47.8822 17.6882 45.1362 13.5779 41.3161 10.6463C37.496 7.71461 32.8153 6.12536 28 6.125ZM10.1456 18.7031L19.2609 23.9531C18.4419 25.7242 18.1825 27.7029 18.5171 29.6253L8.35183 32.3597C7.32845 27.7381 7.96343 22.9037 10.1456 18.7031ZM8.80464 34.0484L18.9678 31.325C19.5992 33.031 20.7001 34.5238 22.1434 35.6312C23.5867 36.7385 25.3136 37.4153 27.125 37.5834V48.1053C22.9992 47.9206 19.0296 46.4734 15.7531 43.9594C12.4766 41.4453 10.0511 37.9858 8.80464 34.0484ZM28.875 48.1053V37.5834C31.2649 37.3636 33.4866 36.2587 35.1041 34.4856C36.7216 32.7125 37.6183 30.399 37.6183 27.9989C37.6183 25.5988 36.7216 23.2854 35.1041 21.5122C33.4866 19.7391 31.2649 18.6342 28.875 18.4144V7.89469C34.0533 8.12391 38.9435 10.3423 42.5268 14.0877C46.11 17.8331 48.11 22.8166 48.11 28C48.11 33.1834 46.11 38.1669 42.5268 41.9123C38.9435 45.6577 34.0533 47.8761 28.875 48.1053Z" fill="#1B1AFF"/>
</svg>
