<svg width="56" height="56" viewBox="0 0 56 56" fill="none" xmlns="http://www.w3.org/2000/svg">
<path d="M39.1364 28.0003L45.8192 21.3197C47.2963 19.8426 48.1261 17.8392 48.1261 15.7503C48.1261 13.6614 47.2963 11.658 45.8192 10.1809C44.3421 8.70384 42.3387 7.87402 40.2498 7.87402C38.1609 7.87402 36.1575 8.70384 34.6804 10.1809L27.9998 16.8637L21.3192 10.1809C19.8421 8.70384 17.8387 7.87402 15.7498 7.87402C13.6609 7.87402 11.6575 8.70384 10.1804 10.1809C8.70336 11.658 7.87354 13.6614 7.87354 15.7503C7.87354 17.8392 8.70336 19.8426 10.1804 21.3197L16.8633 28.0003L10.1804 34.6809C8.70336 36.158 7.87354 38.1614 7.87354 40.2503C7.87354 42.3392 8.70336 44.3426 10.1804 45.8197C11.6575 47.2968 13.6609 48.1266 15.7498 48.1266C17.8387 48.1266 19.8421 47.2968 21.3192 45.8197L27.9998 39.1369L34.6804 45.8197C36.1575 47.2968 38.1609 48.1266 40.2498 48.1266C42.3387 48.1266 44.3421 47.2968 45.8192 45.8197C47.2963 44.3426 48.1261 42.3392 48.1261 40.2503C48.1261 38.1614 47.2963 36.158 45.8192 34.6809L39.1364 28.0003ZM35.9186 11.4191C37.0673 10.2703 38.6253 9.625 40.2498 9.625C41.8744 9.625 43.4324 10.2703 44.5811 11.4191C45.7298 12.5678 46.3751 14.1258 46.3751 15.7503C46.3751 17.3748 45.7298 18.9328 44.5811 20.0816L37.8983 26.7622L29.2379 18.1019L35.9186 11.4191ZM36.6623 28.0003L27.9998 36.6628L19.3373 28.0003L27.9998 19.3378L36.6623 28.0003ZM11.4186 20.0816C10.2699 18.9328 9.62451 17.3748 9.62451 15.7503C9.62451 14.1258 10.2699 12.5678 11.4186 11.4191C12.5673 10.2703 14.1253 9.625 15.7498 9.625C17.3744 9.625 18.9324 10.2703 20.0811 11.4191L26.7617 18.1019L18.1014 26.7622L11.4186 20.0816ZM20.0811 44.5816C18.9324 45.7303 17.3744 46.3756 15.7498 46.3756C14.1253 46.3756 12.5673 45.7303 11.4186 44.5816C10.2699 43.4328 9.62451 41.8748 9.62451 40.2503C9.62451 38.6258 10.2699 37.0678 11.4186 35.9191L18.1014 29.2384L26.7617 37.8987L20.0811 44.5816ZM44.5811 44.5816C44.0123 45.1504 43.3371 45.6016 42.5939 45.9095C41.8507 46.2173 41.0542 46.3757 40.2498 46.3757C39.4454 46.3757 38.6489 46.2173 37.9057 45.9095C37.1626 45.6016 36.4873 45.1504 35.9186 44.5816L29.2379 37.8987L37.8983 29.2384L44.5811 35.9191C45.1499 36.4878 45.6011 37.1631 45.909 37.9062C46.2168 38.6494 46.3753 39.4459 46.3753 40.2503C46.3753 41.0547 46.2168 41.8512 45.909 42.5944C45.6011 43.3375 45.1499 44.0128 44.5811 44.5816ZM26.2498 28.0003C26.2498 27.6542 26.3525 27.3158 26.5448 27.0281C26.737 26.7403 27.0104 26.516 27.3301 26.3835C27.6499 26.2511 28.0018 26.2164 28.3412 26.2839C28.6807 26.3515 28.9925 26.5181 29.2373 26.7629C29.482 27.0076 29.6487 27.3194 29.7162 27.6589C29.7837 27.9984 29.7491 28.3502 29.6166 28.67C29.4842 28.9898 29.2599 29.2631 28.9721 29.4554C28.6843 29.6477 28.3459 29.7503 27.9998 29.7503C27.5357 29.7503 27.0906 29.5659 26.7624 29.2377C26.4342 28.9096 26.2498 28.4644 26.2498 28.0003Z" fill="#1B1AFF"/>
</svg>
