<svg width="32" height="32" viewBox="0 0 32 32" fill="none" xmlns="http://www.w3.org/2000/svg">
<path d="M12 20.0002L20 12.0002M19.326 19.3335H19.338M12.6593 12.6668H12.6713M5.31853 19.5474L3.29188 17.5207C2.46521 16.694 2.46521 15.334 3.29188 14.5074L5.31853 12.4807C5.66519 12.134 5.9452 11.454 5.9452 10.974V8.1073C5.9452 6.93397 6.9052 5.974 8.07854 5.974H10.9452C11.4252 5.974 12.1052 5.69404 12.4519 5.34738L14.4785 3.32068C15.3052 2.49402 16.6652 2.49402 17.4919 3.32068L19.5186 5.34738C19.8652 5.69404 20.5452 5.974 21.0252 5.974H23.8919C25.0652 5.974 26.0252 6.93397 26.0252 8.1073V10.974C26.0252 11.454 26.3052 12.134 26.6519 12.4807L28.6786 14.5074C29.5052 15.334 29.5052 16.694 28.6786 17.5207L26.6519 19.5474C26.3052 19.8941 26.0252 20.5741 26.0252 21.0541V23.9206C26.0252 25.094 25.0652 26.0541 23.8919 26.0541H21.0252C20.5452 26.0541 19.8652 26.334 19.5186 26.6807L17.4919 28.7074C16.6652 29.5341 15.3052 29.5341 14.4785 28.7074L12.4519 26.6807C12.1052 26.334 11.4252 26.0541 10.9452 26.0541H8.07854C6.9052 26.0541 5.9452 25.094 5.9452 23.9206V21.0541C5.9452 20.5607 5.66519 19.8807 5.31853 19.5474Z" stroke="#1B1AFF" stroke-width="1.5" stroke-linecap="round" stroke-linejoin="round"/>
</svg>
