<svg width="32" height="32" viewBox="0 0 32 32" fill="none" xmlns="http://www.w3.org/2000/svg">
<path d="M4.22677 9.91984L16.0001 16.7332L27.6934 9.9598M16.0001 28.8132V16.7198M22.6667 17.6532V12.7732L10.0134 5.46647M13.2401 3.3065L6.12008 7.26655C4.50674 8.15988 3.18677 10.3999 3.18677 12.2399V19.7732C3.18677 21.6132 4.50674 23.8532 6.12008 24.7465L13.2401 28.7066C14.7601 29.5466 17.2534 29.5466 18.7734 28.7066L25.8934 24.7465C27.5068 23.8532 28.8267 21.6132 28.8267 19.7732V12.2399C28.8267 10.3999 27.5068 8.15988 25.8934 7.26655L18.7734 3.3065C17.2401 2.45317 14.7601 2.45317 13.2401 3.3065Z" stroke="#1B1AFF" stroke-width="1.5" stroke-linecap="round" stroke-linejoin="round"/>
</svg>
