<svg width="32" height="32" viewBox="0 0 32 32" fill="none" xmlns="http://www.w3.org/2000/svg">
<path d="M21.3333 20.8801C21.3333 18.4801 18.9467 16.5335 16 16.5335C13.0533 16.5335 10.6667 18.4801 10.6667 20.8801M24 25.1468H22.9867C21.92 25.1468 20.9067 25.5601 20.16 26.3068L17.88 28.5601C16.84 29.5868 15.1467 29.5868 14.1067 28.5601L11.8267 26.3068C11.08 25.5601 10.0533 25.1468 9 25.1468H8C5.78667 25.1468 4 23.3735 4 21.1868V6.64014C4 4.45347 5.78667 2.68018 8 2.68018H24C26.2133 2.68018 28 4.45347 28 6.64014V21.1868C28 23.3602 26.2133 25.1468 24 25.1468ZM19.1067 10.2268C19.1067 11.9426 17.7158 13.3335 16 13.3335C14.2842 13.3335 12.8933 11.9426 12.8933 10.2268C12.8933 8.51104 14.2842 7.1202 16 7.1202C17.7158 7.1202 19.1067 8.51104 19.1067 10.2268Z" stroke="#1B1AFF" stroke-width="1.5" stroke-linecap="round" stroke-linejoin="round"/>
</svg>
