<svg width="20" height="20" viewBox="0 0 20 20" fill="none" xmlns="http://www.w3.org/2000/svg">
<path d="M10 0.625C8.1458 0.625 6.33324 1.17483 4.79153 2.20497C3.24982 3.23511 2.04821 4.69929 1.33863 6.41234C0.629062 8.1254 0.443406 10.0104 0.805142 11.829C1.16688 13.6475 2.05976 15.318 3.37088 16.6291C4.682 17.9402 6.35246 18.8331 8.17103 19.1949C9.9896 19.5566 11.8746 19.3709 13.5877 18.6614C15.3007 17.9518 16.7649 16.7502 17.795 15.2085C18.8252 13.6668 19.375 11.8542 19.375 10C19.3723 7.51443 18.3837 5.13145 16.6261 3.37389C14.8686 1.61633 12.4856 0.62773 10 0.625ZM10 18.4947C9.40657 17.9237 7.84375 16.2063 7.06844 13.375H12.9316C12.1563 16.2063 10.5934 17.9237 10 18.4947ZM6.88938 12.625C6.53689 10.8927 6.53689 9.10725 6.88938 7.375H13.1106C13.4631 9.10725 13.4631 10.8927 13.1106 12.625H6.88938ZM10 1.50531C10.5934 2.07625 12.1563 3.79375 12.9316 6.625H7.06844C7.84375 3.79375 9.40657 2.07625 10 1.50531ZM13.8822 7.375H18.2163C18.7612 9.08257 18.7612 10.9174 18.2163 12.625H13.8822C14.2059 10.89 14.2059 9.11003 13.8822 7.375ZM17.9369 6.625H13.7181C13.2449 4.6958 12.3052 2.91233 10.9816 1.43125C12.4958 1.60718 13.9366 2.18021 15.158 3.09229C16.3795 4.00438 17.3381 5.22311 17.9369 6.625ZM9.01938 1.43125C7.6957 2.91233 6.756 4.6958 6.28282 6.625H2.06407C2.66282 5.22311 3.62147 4.00438 4.84291 3.09229C6.06435 2.18021 7.50516 1.60718 9.01938 1.43125ZM1.78375 7.375H6.11782C5.79407 9.11003 5.79407 10.89 6.11782 12.625H1.78375C1.23877 10.9174 1.23877 9.08257 1.78375 7.375ZM2.065 13.375H6.28375C6.75694 15.3042 7.69664 17.0877 9.02032 18.5687C7.50577 18.3931 6.06456 17.8202 4.84277 16.9081C3.62098 15.996 2.66203 14.7771 2.06313 13.375H2.065ZM10.9825 18.5687C12.3055 17.0875 13.2446 15.304 13.7172 13.375H17.9359C17.3372 14.7769 16.3785 15.9956 15.1571 16.9077C13.9357 17.8198 12.4948 18.3928 10.9806 18.5687H10.9825Z" fill="white"/>
</svg>
