<svg width="19" height="16" viewBox="0 0 19 16" fill="none" xmlns="http://www.w3.org/2000/svg">
<path d="M10.7164 15.4167C10.6111 15.3112 10.5519 15.1682 10.5519 15.0192C10.5519 14.8701 10.6111 14.7271 10.7164 14.6217L16.5055 8.83167L1.3639 8.83167C1.21472 8.83167 1.07164 8.77241 0.966152 8.66692C0.860662 8.56143 0.801399 8.41836 0.801399 8.26917C0.801399 8.11999 0.860662 7.97691 0.966152 7.87142C1.07164 7.76593 1.21472 7.70667 1.3639 7.70667L16.5055 7.70667L10.7164 1.91667C10.617 1.81004 10.5629 1.66901 10.5655 1.52328C10.5681 1.37755 10.6271 1.23851 10.7302 1.13546C10.8332 1.0324 10.9723 0.973362 11.118 0.97079C11.2637 0.968219 11.4048 1.02231 11.5114 1.12167L18.2614 7.87167C18.3667 7.97714 18.4259 8.12011 18.4259 8.26917C18.4259 8.41823 18.3667 8.5612 18.2614 8.66667L11.5114 15.4167C11.4059 15.522 11.263 15.5812 11.1139 15.5812C10.9648 15.5812 10.8219 15.522 10.7164 15.4167Z" fill="black"/>
</svg>
