<svg width="18" height="16" viewBox="0 0 18 16" fill="none" xmlns="http://www.w3.org/2000/svg">
<path d="M8.0845 1.13606C8.18984 1.24153 8.24901 1.3845 8.24901 1.53356C8.24901 1.68262 8.18984 1.82559 8.0845 1.93106L2.29544 7.72106L17.437 7.72106C17.5862 7.72106 17.7293 7.78033 17.8348 7.88581C17.9402 7.9913 17.9995 8.13438 17.9995 8.28356C17.9995 8.43275 17.9402 8.57582 17.8348 8.68131C17.7293 8.7868 17.5862 8.84606 17.437 8.84606L2.29544 8.84606L8.0845 14.6361C8.18386 14.7427 8.23796 14.8837 8.23539 15.0295C8.23281 15.1752 8.17378 15.3142 8.07072 15.4173C7.96766 15.5203 7.82862 15.5794 7.6829 15.5819C7.53717 15.5845 7.39614 15.5304 7.2895 15.4311L0.539505 8.68106C0.434167 8.57559 0.375 8.43263 0.375 8.28356C0.375 8.1345 0.434167 7.99153 0.539505 7.88606L7.2895 1.13606C7.39497 1.03072 7.53794 0.971557 7.687 0.971557C7.83607 0.971557 7.97904 1.03072 8.0845 1.13606Z" fill="black"/>
</svg>
