<svg width="12" height="10" viewBox="0 0 12 10" fill="none" xmlns="http://www.w3.org/2000/svg">
<path d="M6.75083 0.112594C6.67911 0.184781 6.63882 0.282635 6.63882 0.384659C6.63882 0.486684 6.67911 0.584538 6.75083 0.656725L10.6924 4.61964L0.382989 4.61964C0.281414 4.61964 0.183999 4.6602 0.112174 4.7324C0.0403499 4.8046 -1.01446e-06 4.90253 -1.01324e-06 5.00463C-1.01203e-06 5.10674 0.0403499 5.20467 0.112174 5.27687C0.183999 5.34907 0.281414 5.38963 0.382989 5.38963L10.6924 5.38963L6.75083 9.35254C6.68318 9.42552 6.64635 9.52205 6.6481 9.62179C6.64985 9.72153 6.69004 9.8167 6.76021 9.88724C6.83038 9.95778 6.92505 9.99818 7.02427 9.99994C7.12349 10.0017 7.21952 9.96468 7.29212 9.89667L11.888 5.2767C11.9597 5.20451 12 5.10666 12 5.00463C12 4.90261 11.9597 4.80475 11.888 4.73257L7.29212 0.112594C7.22031 0.0404959 7.12297 5.8158e-08 7.02147 5.93683e-08C6.91998 6.05786e-08 6.82264 0.0404959 6.75083 0.112594Z" fill="white"/>
</svg>
